<svg id="svg" version="1.1" xmlns="http://www.w3.org/2000/svg" xmlns:xlink="http://www.w3.org/1999/xlink" width="400" height="380.2469135802469" viewBox="0, 0, 400,380.2469135802469"><g id="svgg"><path id="path0" d="M96.289 61.085 L 96.289 70.029 87.345 70.029 L 78.402 70.029 78.402 79.140 C 78.402 85.910,78.521 88.326,78.867 88.540 C 79.365 88.848,96.453 88.737,97.278 88.420 C 97.656 88.275,97.798 86.288,97.886 79.909 C 97.972 73.719,98.129 71.461,98.496 71.093 C 99.049 70.541,127.185 70.134,132.350 70.604 L 135.109 70.855 135.109 79.553 C 135.109 85.358,135.246 88.336,135.519 88.505 C 136.007 88.806,152.407 88.734,153.206 88.427 C 153.665 88.251,153.758 86.814,153.758 79.892 L 153.758 71.568 154.657 70.980 C 155.658 70.324,246.220 70.261,246.876 70.916 C 247.050 71.090,247.245 75.157,247.308 79.955 L 247.423 88.677 265.006 88.704 C 274.676 88.719,282.931 88.869,283.349 89.037 C 285.351 89.842,285.442 89.415,285.442 79.323 L 285.442 69.995 266.419 70.107 L 247.396 70.219 247.295 61.275 L 247.193 52.331 199.715 52.234 L 152.236 52.138 152.236 61.083 L 152.236 70.029 145.052 70.029 C 141.101 70.029,137.333 70.136,136.679 70.266 L 135.490 70.504 135.490 62.059 C 135.490 56.965,135.334 53.321,135.096 52.877 C 134.715 52.164,134.095 52.141,115.496 52.141 L 96.289 52.141 96.289 61.085 M61.180 90.582 C 60.416 91.060,60.127 199.750,60.886 200.951 C 61.290 201.591,78.031 201.830,78.655 201.205 C 79.023 200.837,79.028 91.080,78.660 90.712 C 78.204 90.256,61.895 90.134,61.180 90.582 M285.823 90.477 C 285.509 90.597,285.120 90.883,284.959 91.113 C 284.578 91.659,284.720 106.013,285.114 106.649 C 285.525 107.314,302.618 107.470,303.039 106.812 C 303.763 105.679,303.361 91.004,302.594 90.594 C 301.825 90.182,286.870 90.079,285.823 90.477 M117.393 90.991 C 116.960 91.693,116.749 105.933,117.164 106.534 C 117.604 107.173,128.035 107.602,132.219 107.154 L 134.744 106.884 134.641 98.827 L 134.539 90.771 126.097 90.668 C 120.190 90.597,117.577 90.694,117.393 90.991 M304.472 108.410 C 303.232 108.775,303.102 111.115,303.244 130.447 L 303.348 144.624 312.283 144.624 L 321.218 144.624 321.307 128.735 C 321.425 107.901,321.436 108.940,321.083 108.586 C 320.691 108.194,305.745 108.035,304.472 108.410 M173.358 109.318 C 173.243 109.793,173.196 121.998,173.254 136.441 L 173.359 162.702 181.922 162.702 L 190.485 162.702 190.590 136.441 C 190.648 121.998,190.610 109.829,190.506 109.399 C 190.324 108.642,190.045 108.614,181.942 108.536 L 173.567 108.456 173.358 109.318 M211.350 108.936 C 210.948 109.557,210.780 160.113,211.175 161.590 L 211.472 162.702 219.057 162.702 L 226.641 162.702 226.641 135.680 L 226.641 108.658 219.152 108.555 C 213.421 108.476,211.589 108.566,211.350 108.936 M324.072 146.480 L 322.931 146.724 322.828 154.565 C 322.745 160.904,322.827 162.491,323.256 162.847 C 323.633 163.159,326.273 163.258,332.303 163.185 L 340.818 163.083 340.921 155.013 C 341.016 147.546,340.972 146.915,340.333 146.573 C 339.574 146.167,325.904 146.089,324.072 146.480 M346.832 162.415 C 348.884 162.484,352.138 162.484,354.064 162.415 C 355.989 162.346,354.310 162.290,350.333 162.290 C 346.356 162.290,344.781 162.347,346.832 162.415 M341.242 165.010 C 340.939 165.801,340.936 218.207,341.240 218.998 C 341.560 219.834,358.163 219.913,358.852 219.083 C 359.165 218.706,359.255 211.199,359.184 191.585 L 359.087 164.605 350.281 164.503 C 342.501 164.413,341.449 164.472,341.242 165.010 M192.291 184.901 C 191.921 185.136,191.809 188.951,191.792 201.926 L 191.771 218.649 199.881 218.757 C 204.342 218.816,208.335 218.780,208.754 218.678 C 209.707 218.445,209.807 185.508,208.857 184.905 C 208.229 184.507,192.918 184.503,192.291 184.901 M78.770 202.696 C 78.535 203.314,78.433 213.647,78.494 230.574 L 78.592 257.469 87.441 257.571 L 96.289 257.673 96.289 275.935 L 96.289 294.196 87.345 294.196 L 78.402 294.196 78.402 303.284 C 78.402 310.112,78.520 312.459,78.877 312.723 C 79.597 313.257,96.246 313.041,96.796 312.491 C 97.102 312.185,97.267 309.531,97.324 304.003 C 97.393 297.285,97.505 295.862,98.003 295.363 C 98.525 294.841,100.837 294.756,116.569 294.679 L 134.539 294.592 134.539 285.926 L 134.539 277.260 125.886 277.157 C 117.279 277.056,117.232 277.051,117.052 276.206 C 116.952 275.739,116.817 271.760,116.752 267.364 C 116.687 262.969,116.499 259.158,116.334 258.896 C 116.110 258.539,113.932 258.421,107.586 258.421 C 99.245 258.421,99.129 258.410,98.569 257.564 C 98.096 256.850,97.957 253.646,97.733 238.249 C 97.361 212.649,97.066 203.522,96.595 202.954 C 96.298 202.596,94.225 202.474,88.463 202.474 C 83.718 202.474,80.639 202.327,80.495 202.093 C 80.058 201.387,79.146 201.706,78.770 202.696 M76.676 231.208 C 76.676 242.512,76.725 247.081,76.784 241.362 C 76.843 235.643,76.843 226.395,76.784 220.810 C 76.724 215.226,76.676 219.905,76.676 231.208 M312.464 221.119 L 285.252 221.313 285.252 229.876 L 285.252 238.440 313.035 238.630 L 340.818 238.820 340.916 266.459 C 341.005 291.794,340.961 294.142,340.383 294.622 C 339.726 295.167,338.626 295.232,328.830 295.307 C 325.794 295.330,323.095 295.487,322.830 295.655 C 322.102 296.117,321.943 312.373,322.660 313.091 C 323.065 313.495,325.129 313.606,332.282 313.606 L 341.389 313.606 341.389 304.662 L 341.389 295.718 350.333 295.718 L 359.277 295.718 359.280 268.982 C 359.282 254.277,359.393 241.335,359.526 240.222 L 359.769 238.199 350.389 238.319 L 341.008 238.440 341.008 229.822 C 341.009 222.315,340.931 221.174,340.407 220.973 C 340.075 220.846,339.776 220.783,339.741 220.833 C 339.705 220.884,327.431 221.012,312.464 221.119 M266.667 239.645 C 266.350 239.962,266.328 255.474,266.644 256.296 C 266.957 257.112,282.425 257.212,283.097 256.402 C 283.754 255.610,283.872 239.834,283.223 239.585 C 282.465 239.295,266.961 239.351,266.667 239.645 M247.212 259.161 C 246.588 259.851,246.551 261.114,246.677 277.395 L 246.813 294.889 245.480 295.109 C 244.748 295.230,240.951 295.331,237.043 295.334 C 233.136 295.336,229.668 295.442,229.337 295.569 C 228.812 295.770,228.735 296.916,228.735 304.485 L 228.735 313.170 227.715 313.972 C 226.698 314.772,226.606 314.774,200.090 314.730 C 185.458 314.705,173.371 314.798,173.232 314.937 C 173.092 315.076,172.892 319.066,172.788 323.803 L 172.598 332.415 171.265 332.708 C 170.533 332.869,149.513 332.993,124.555 332.982 C 99.597 332.971,79.002 333.070,78.789 333.202 C 78.544 333.354,78.402 336.779,78.402 342.553 L 78.402 351.665 134.919 351.665 L 191.437 351.665 191.437 341.577 L 191.437 331.489 218.887 331.586 L 246.337 331.684 246.288 341.675 L 246.239 351.665 274.785 351.665 L 303.330 351.665 303.330 342.553 C 303.330 336.535,303.193 333.357,302.926 333.192 C 302.704 333.054,294.730 332.935,285.206 332.926 C 275.683 332.918,267.344 332.799,266.676 332.663 L 265.461 332.416 265.271 323.790 C 265.138 317.772,264.942 315.026,264.620 314.705 C 264.295 314.381,261.883 314.224,256.437 314.172 C 246.807 314.082,247.557 314.183,247.028 312.905 C 246.521 311.681,246.597 295.614,247.112 295.101 C 247.277 294.936,251.131 294.743,255.676 294.671 C 260.221 294.599,264.153 294.468,264.415 294.380 C 264.786 294.255,264.891 290.375,264.891 276.691 L 264.891 259.163 263.914 258.792 C 261.883 258.019,247.966 258.327,247.212 259.161 M135.350 295.637 C 135.248 295.802,135.151 299.652,135.134 304.192 L 135.103 312.448 135.963 312.645 C 136.435 312.753,144.813 312.886,154.580 312.939 L 172.339 313.035 172.559 311.703 C 172.853 309.925,172.841 298.567,172.544 296.765 L 172.308 295.338 153.921 295.338 C 143.809 295.338,135.452 295.472,135.350 295.637 M76.617 306.185 C 76.619 307.441,76.690 307.908,76.774 307.224 C 76.859 306.540,76.857 305.513,76.771 304.941 C 76.684 304.369,76.614 304.929,76.617 306.185 M305.233 314.363 L 303.520 314.558 303.520 322.931 L 303.520 331.304 312.057 331.406 C 316.752 331.463,320.747 331.355,320.935 331.168 C 321.278 330.825,321.348 315.530,321.010 314.650 C 320.822 314.160,308.923 313.942,305.233 314.363 M60.977 314.817 C 60.269 315.526,60.324 330.482,61.037 331.074 C 61.404 331.378,64.115 331.478,70.076 331.406 L 78.592 331.304 78.592 322.931 L 78.592 314.558 70.016 314.455 C 63.667 314.380,61.321 314.474,60.977 314.817 " stroke="none" fill="#0b0708" fill-rule="evenodd"></path><path id="path1" d="M96.459 50.652 C 95.715 51.856,97.063 51.950,116.479 52.056 L 135.871 52.161 135.871 61.095 C 135.871 69.742,135.895 70.029,136.624 70.029 C 137.355 70.029,137.375 69.759,137.323 60.720 C 137.294 55.600,137.129 51.498,136.955 51.605 C 136.782 51.712,136.742 51.534,136.867 51.209 C 136.992 50.884,136.947 50.616,136.768 50.612 C 122.629 50.331,97.715 50.600,97.155 51.040 C 96.541 51.522,96.527 51.510,97.002 50.904 C 97.313 50.507,97.361 50.238,97.119 50.238 C 96.897 50.238,96.600 50.424,96.459 50.652 M152.369 50.711 C 152.161 51.048,152.768 52.224,153.127 52.175 C 153.265 52.156,174.615 52.141,200.571 52.141 L 247.764 52.141 247.764 61.113 C 247.764 69.452,247.811 70.075,248.430 69.956 C 249.312 69.786,249.593 51.093,248.719 50.757 C 247.910 50.447,152.561 50.401,152.369 50.711 M139.803 67.965 C 139.676 68.295,139.853 68.846,140.195 69.188 C 140.974 69.967,142.151 69.066,141.743 68.003 C 141.433 67.195,140.108 67.169,139.803 67.965 M76.752 70.573 C 76.648 70.844,76.591 74.942,76.626 79.681 L 76.689 88.297 77.545 88.297 L 78.402 88.297 78.402 79.244 C 78.402 70.590,78.369 70.188,77.671 70.136 C 77.269 70.105,76.856 70.302,76.752 70.573 M99.487 71.611 C 99.377 71.789,99.287 75.574,99.287 80.021 C 99.287 90.850,100.283 89.819,89.819 89.819 C 81.467 89.819,81.464 89.820,80.877 90.714 C 79.879 92.238,80.067 200.037,81.069 200.573 C 81.471 200.788,85.068 200.951,89.386 200.951 C 99.409 200.951,98.930 200.484,98.991 210.342 C 99.014 214.073,99.080 225.861,99.137 236.537 C 99.194 247.212,99.262 256.161,99.287 256.422 C 99.323 256.787,101.316 256.898,107.851 256.898 C 118.469 256.898,117.360 255.755,117.602 266.946 L 117.793 275.737 126.394 275.928 C 137.361 276.170,136.251 275.077,136.251 285.639 C 136.251 293.016,136.329 294.144,136.853 294.346 C 137.184 294.473,145.399 294.577,155.108 294.577 C 172.172 294.577,172.774 294.601,173.155 295.313 C 173.392 295.756,173.549 299.387,173.549 304.449 L 173.549 312.850 200.285 312.752 L 227.022 312.655 227.125 304.103 C 227.187 298.896,227.380 295.398,227.618 295.159 C 227.851 294.926,231.431 294.690,236.460 294.577 L 244.910 294.386 245.100 276.417 C 245.276 259.831,245.342 258.395,245.969 257.768 C 246.571 257.166,247.674 257.067,255.674 256.898 L 264.700 256.708 264.802 248.090 C 264.930 237.357,263.800 238.462,274.749 238.358 C 279.479 238.313,283.569 238.271,283.837 238.263 C 284.220 238.252,284.316 236.399,284.286 229.631 C 284.255 222.764,284.354 220.906,284.773 220.487 C 285.212 220.049,289.732 219.963,311.764 219.976 C 337.610 219.991,338.252 219.973,339.191 219.234 L 340.153 218.478 340.196 192.006 L 340.239 165.534 339.267 165.165 C 338.732 164.962,334.825 164.795,330.584 164.795 C 320.408 164.795,321.301 165.762,321.071 154.510 C 320.974 149.805,320.882 145.913,320.866 145.861 C 320.850 145.809,316.834 145.766,311.940 145.766 C 304.980 145.766,302.951 145.655,302.621 145.257 C 302.326 144.902,302.192 139.457,302.177 127.184 C 302.156 110.360,302.125 109.603,301.436 109.234 C 301.018 109.010,297.456 108.849,292.940 108.849 C 285.650 108.849,285.102 108.799,284.162 108.060 L 283.159 107.271 283.159 99.281 C 283.159 94.502,283.001 90.996,282.765 90.555 C 282.384 89.844,281.785 89.819,265.042 89.819 C 253.825 89.819,247.454 89.680,246.978 89.425 C 246.283 89.053,246.242 88.543,246.242 80.340 L 246.242 71.649 244.434 71.421 C 242.029 71.118,157.706 71.084,156.199 71.386 L 155.025 71.621 155.096 80.016 C 155.188 90.852,156.196 89.819,145.522 89.819 C 135.281 89.819,136.279 88.830,136.263 98.997 C 136.252 106.348,136.201 106.906,135.462 107.846 L 134.674 108.849 125.930 108.849 L 117.187 108.849 116.253 107.915 C 115.256 106.918,114.850 97.812,115.649 94.378 C 115.820 93.641,115.839 92.699,115.691 92.285 C 115.389 91.442,115.889 89.796,116.579 89.357 C 116.828 89.199,120.488 89.067,124.714 89.064 C 128.939 89.061,132.835 88.891,133.372 88.687 L 134.348 88.316 134.348 79.978 L 134.348 71.640 131.589 71.401 C 127.534 71.049,99.722 71.231,99.487 71.611 M58.995 88.863 C 58.435 89.538,58.747 90.580,59.510 90.580 C 60.064 90.580,60.514 89.800,60.514 88.837 C 60.514 88.129,59.592 88.145,58.995 88.863 M303.686 88.582 C 303.477 90.946,303.848 106.788,304.113 106.882 C 304.311 106.952,304.472 107.252,304.472 107.548 C 304.472 108.240,322.906 108.363,323.332 107.674 C 323.846 106.841,322.655 106.375,319.961 106.352 C 318.455 106.340,314.524 106.297,311.227 106.257 L 305.233 106.185 305.233 97.241 C 305.233 88.551,305.212 88.297,304.472 88.297 C 304.053 88.297,303.699 88.425,303.686 88.582 M191.045 107.687 C 191.312 108.186,191.410 117.409,191.344 135.945 L 191.246 163.463 181.922 163.463 L 172.598 163.463 172.500 135.945 C 172.434 117.409,172.532 108.186,172.799 107.687 C 173.174 106.986,173.665 106.946,181.922 106.946 C 190.179 106.946,190.670 106.986,191.045 107.687 M227.378 107.546 C 227.916 108.084,227.968 111.036,227.881 135.805 L 227.783 163.463 219.367 163.566 C 212.541 163.649,210.869 163.568,210.511 163.137 C 209.768 162.241,210.095 107.793,210.847 107.318 C 211.906 106.649,226.684 106.853,227.378 107.546 M341.389 145.694 C 341.389 146.562,341.595 147.308,341.865 147.417 C 342.245 147.570,342.245 147.615,341.865 147.639 C 341.090 147.688,341.185 162.512,341.960 162.512 C 342.277 162.512,342.531 162.850,342.531 163.273 C 342.531 164.014,342.785 164.034,351.855 164.034 C 360.926 164.034,361.180 164.014,361.180 163.273 C 361.180 162.533,360.926 162.512,352.236 162.512 L 343.292 162.512 343.292 155.281 C 343.292 150.445,343.159 148.049,342.889 148.049 C 342.667 148.049,342.615 147.841,342.773 147.585 C 343.140 146.991,343.209 144.624,342.859 144.624 C 342.713 144.624,342.322 144.520,341.991 144.393 C 341.504 144.206,341.389 144.453,341.389 145.694 M171.170 164.308 C 171.895 165.272,171.847 182.423,171.118 183.028 C 170.231 183.764,135.955 183.432,135.482 182.683 C 134.912 181.782,135.006 165.077,135.585 164.312 C 136.210 163.485,137.405 163.441,155.661 163.569 C 169.157 163.664,170.743 163.740,171.170 164.308 M264.042 164.164 C 264.341 164.463,264.580 165.113,264.575 165.608 C 264.496 172.564,264.576 181.734,264.716 181.875 C 264.816 181.974,264.424 182.366,263.847 182.747 C 262.413 183.693,229.559 183.833,228.623 182.898 C 227.892 182.167,227.567 178.406,227.621 171.299 C 227.680 163.488,227.553 163.707,232.120 163.572 C 242.947 163.251,263.511 163.633,264.042 164.164 M210.249 183.662 C 210.774 184.187,210.847 186.267,210.847 200.757 C 210.847 209.831,210.936 217.488,211.046 217.772 C 211.155 218.057,210.997 218.628,210.696 219.040 C 210.126 219.820,193.101 220.240,191.342 219.517 C 190.482 219.164,190.297 185.181,191.148 183.820 C 191.798 182.779,209.222 182.635,210.249 183.662 M58.991 202.075 C 58.991 203.294,61.528 203.659,69.188 203.542 L 76.812 203.425 76.806 230.447 L 76.800 257.469 77.621 257.593 C 78.073 257.662,78.596 258.120,78.783 258.613 L 79.123 259.507 87.326 259.547 C 93.024 259.575,95.528 259.460,95.528 259.172 C 95.528 258.943,95.689 258.856,95.886 258.977 C 96.082 259.099,96.217 258.852,96.185 258.429 C 96.129 257.680,95.886 257.659,87.264 257.659 L 78.402 257.659 78.396 255.281 C 78.393 253.972,78.396 241.384,78.401 227.307 L 78.412 201.713 68.702 201.713 C 62.801 201.713,58.991 201.855,58.991 202.075 M359.277 220.529 C 359.277 221.290,360.060 221.702,360.415 221.128 C 360.642 220.761,360.753 220.771,360.913 221.175 C 361.032 221.474,361.132 221.331,361.150 220.837 C 361.173 220.170,360.970 219.981,360.228 219.981 C 359.654 219.981,359.277 220.198,359.277 220.529 M341.389 229.850 L 341.389 238.249 343.115 238.249 C 344.745 238.249,344.818 238.205,344.418 237.459 C 344.185 237.024,343.794 236.745,343.548 236.839 C 343.216 236.967,343.102 235.056,343.102 229.352 C 343.102 221.700,343.101 221.694,342.245 221.572 L 341.389 221.450 341.389 229.850 M76.736 294.506 C 76.053 295.634,76.862 312.282,77.605 312.396 C 78.394 312.516,78.402 312.436,78.402 303.438 C 78.402 294.661,78.376 294.356,77.648 294.301 C 77.233 294.270,76.823 294.362,76.736 294.506 M69.024 305.043 C 68.723 305.829,69.132 306.755,69.780 306.755 C 70.718 306.755,71.338 305.704,70.790 305.043 C 70.529 304.729,70.075 304.472,69.780 304.472 C 69.485 304.472,69.145 304.729,69.024 305.043 M341.389 312.084 C 341.389 313.316,341.796 313.540,342.497 312.695 C 342.837 312.285,342.798 312.025,342.327 311.553 C 341.488 310.715,341.389 310.771,341.389 312.084 M58.849 312.667 C 58.413 313.802,58.585 314.684,59.225 314.590 C 60.398 314.418,60.803 312.377,59.705 312.165 C 59.365 312.100,58.980 312.326,58.849 312.667 M323.501 314.702 C 323.501 315.380,323.958 315.418,332.445 315.444 C 341.071 315.471,341.389 315.446,341.389 314.729 C 341.389 314.014,341.062 313.987,332.445 313.987 C 323.948 313.987,323.501 314.022,323.501 314.702 M58.611 332.087 C 58.611 333.211,60.024 334.124,60.370 333.223 C 60.699 332.366,60.310 331.629,59.404 331.392 C 58.765 331.225,58.611 331.360,58.611 332.087 M321.218 332.595 C 321.218 333.495,322.265 333.938,322.864 333.291 C 323.711 332.376,323.533 331.874,322.360 331.874 C 321.493 331.874,321.218 332.048,321.218 332.595 M77.243 333.407 C 76.556 333.832,76.229 350.904,76.908 350.904 C 77.126 350.904,77.181 351.104,77.029 351.349 C 76.842 351.653,76.966 351.713,77.419 351.539 C 77.784 351.399,78.155 351.284,78.242 351.284 C 78.544 351.284,78.401 333.441,78.098 333.254 C 77.931 333.151,77.546 333.220,77.243 333.407 M191.906 342.370 C 191.996 350.384,192.078 351.413,192.629 351.494 C 193.623 351.639,193.471 333.661,192.476 333.468 C 191.846 333.346,191.810 333.907,191.906 342.370 M244.549 333.745 C 244.286 334.170,244.308 349.641,244.573 350.729 C 244.677 351.157,245.095 351.531,245.502 351.562 C 246.216 351.616,246.242 351.296,246.242 342.507 C 246.242 333.743,246.214 333.397,245.503 333.397 C 245.097 333.397,244.667 333.553,244.549 333.745 M303.711 342.507 C 303.711 351.383,303.730 351.616,304.472 351.560 C 305.210 351.505,305.233 351.230,305.233 342.450 C 305.233 333.650,305.212 333.397,304.472 333.397 C 303.732 333.397,303.711 333.650,303.711 342.507 " stroke="none" fill="#fab2cc" fill-rule="evenodd"></path><path id="path2" d="M138.576 166.599 C 138.284 167.303,138.241 168.411,138.447 169.935 C 138.616 171.190,138.602 172.988,138.415 173.930 C 137.748 177.299,138.307 180.664,139.502 180.467 C 141.021 180.215,142.542 180.202,142.912 180.437 C 143.425 180.763,151.618 181.285,153.758 181.128 C 155.549 180.996,159.147 181.028,164.119 181.220 C 167.454 181.349,168.353 180.928,167.536 179.620 C 167.199 179.080,167.174 178.649,167.451 178.132 C 167.665 177.732,167.840 176.906,167.840 176.297 C 167.840 175.687,168.134 174.605,168.493 173.893 C 169.532 171.834,169.509 167.267,168.458 166.794 C 166.238 165.794,163.642 165.415,161.846 165.830 C 160.698 166.095,156.982 166.188,151.665 166.084 C 141.273 165.880,141.954 165.883,140.818 166.040 C 140.295 166.112,139.675 166.030,139.440 165.858 C 139.166 165.657,138.856 165.924,138.576 166.599 M245.845 165.700 C 245.734 165.810,242.738 165.996,239.187 166.113 C 232.030 166.349,231.534 166.398,231.063 166.912 C 230.521 167.504,230.266 169.142,230.626 169.724 C 230.836 170.064,230.771 170.639,230.453 171.255 C 230.095 171.946,230.056 172.443,230.323 172.919 C 230.533 173.294,230.607 174.651,230.488 175.952 C 229.982 181.506,230.107 181.733,233.476 181.376 C 236.007 181.109,245.476 181.113,245.912 181.382 C 246.062 181.475,246.995 181.277,247.984 180.941 C 249.129 180.552,250.281 180.421,251.152 180.579 C 255.455 181.363,261.450 179.990,262.260 178.035 C 263.801 174.316,262.038 168.226,258.983 166.709 C 257.046 165.748,257.035 165.747,250.428 166.004 C 249.277 166.049,247.820 165.953,247.191 165.792 C 246.561 165.630,245.956 165.589,245.845 165.700 M288.202 242.105 L 286.965 242.886 286.965 250.051 C 286.965 257.503,286.856 258.421,285.973 258.421 C 285.681 258.421,285.442 258.587,285.442 258.791 C 285.442 259.683,283.159 260.383,281.758 259.920 C 280.966 259.659,279.674 259.577,278.642 259.722 C 276.228 260.063,276.371 260.067,274.025 259.590 C 267.260 258.215,267.401 257.826,267.174 278.424 L 266.984 295.684 265.343 297.260 L 263.701 298.837 258.980 298.565 C 250.220 298.059,249.956 298.243,250.024 304.793 C 250.092 311.350,250.230 311.423,261.730 311.022 C 264.645 310.921,264.879 310.970,265.311 311.784 C 265.566 312.263,266.608 313.616,267.627 314.791 C 270.138 317.684,271.037 321.402,269.692 323.324 C 266.251 328.236,269.611 331.662,276.231 329.992 C 278.274 329.476,286.962 329.739,288.105 330.351 C 289.169 330.921,292.035 330.656,295.682 329.651 C 298.803 328.791,299.129 328.495,299.138 326.514 C 299.141 325.764,299.329 324.223,299.555 323.089 C 299.944 321.140,299.829 319.568,298.954 314.938 C 298.544 312.767,302.486 309.600,304.354 310.600 C 305.352 311.134,317.874 311.367,318.381 310.861 C 318.639 310.603,318.851 306.958,319.051 299.334 C 319.249 291.774,323.098 288.265,327.536 291.597 C 328.207 292.101,335.718 291.907,337.048 291.351 C 338.698 290.662,338.773 289.653,338.688 269.192 C 338.612 250.937,338.618 251.002,336.877 249.869 C 335.092 248.708,335.066 247.810,336.810 247.532 C 338.302 247.293,339.449 243.769,338.382 242.702 C 337.789 242.109,305.861 241.849,302.388 242.410 C 299.968 242.800,299.124 242.783,297.136 242.302 C 292.898 241.278,289.626 241.206,288.202 242.105 M101.562 298.640 C 101.222 299.049,101.318 299.371,101.994 300.090 C 103.058 301.223,102.928 303.566,101.667 305.986 C 100.642 307.952,100.651 308.355,101.756 309.676 C 104.974 313.526,97.964 316.539,89.042 315.140 C 82.676 314.142,81.660 315.804,82.822 325.320 C 83.366 329.773,88.479 332.096,94.401 330.582 C 96.064 330.157,103.024 330.005,129.210 329.823 C 165.762 329.569,164.911 329.599,167.935 328.458 C 169.766 327.768,170.970 326.546,169.820 326.546 C 169.652 326.546,169.585 325.947,169.671 325.214 C 169.756 324.481,169.979 323.882,170.165 323.882 C 170.352 323.882,170.504 322.940,170.504 321.789 C 170.504 320.637,170.374 319.696,170.215 319.696 C 170.055 319.696,169.242 319.099,168.407 318.371 C 167.572 317.642,166.750 317.043,166.581 317.039 C 166.411 317.035,166.365 316.882,166.478 316.699 C 167.064 315.751,144.224 314.916,137.776 315.650 C 132.441 316.257,130.533 313.788,131.713 307.804 C 132.113 305.773,132.123 304.972,131.761 303.971 C 131.509 303.275,131.304 301.744,131.304 300.570 C 131.304 298.866,131.169 298.393,130.637 298.232 C 128.984 297.731,102.002 298.109,101.562 298.640 M123.038 308.849 C 123.083 309.058,122.564 309.283,121.884 309.349 C 120.714 309.461,120.316 309.117,120.918 308.514 C 121.300 308.132,122.937 308.390,123.038 308.849 " stroke="none" fill="#f7537b" fill-rule="evenodd"></path><path id="path3" d="M138.344 163.573 C 136.763 163.649,135.915 163.876,135.585 164.312 C 135.006 165.077,134.912 181.782,135.482 182.683 C 135.955 183.432,170.231 183.764,171.118 183.028 C 171.847 182.423,171.895 165.272,171.170 164.308 C 170.716 163.703,146.795 163.168,138.344 163.573 M232.120 163.572 C 227.553 163.707,227.680 163.488,227.621 171.299 C 227.567 178.406,227.892 182.167,228.623 182.898 C 229.559 183.833,262.413 183.693,263.847 182.747 C 264.424 182.366,264.816 181.974,264.716 181.875 C 264.576 181.734,264.496 172.564,264.575 165.608 C 264.597 163.633,264.559 163.628,249.637 163.542 C 242.013 163.499,234.130 163.512,232.120 163.572 M140.818 166.040 C 141.954 165.883,141.273 165.880,151.665 166.084 C 156.982 166.188,160.698 166.095,161.846 165.830 C 163.642 165.415,166.238 165.794,168.458 166.794 C 169.509 167.267,169.532 171.834,168.493 173.893 C 168.134 174.605,167.840 175.687,167.840 176.297 C 167.840 176.906,167.665 177.732,167.451 178.132 C 167.174 178.649,167.199 179.080,167.536 179.620 C 168.353 180.928,167.454 181.349,164.119 181.220 C 159.147 181.028,155.549 180.996,153.758 181.128 C 151.618 181.285,143.425 180.763,142.912 180.437 C 142.542 180.202,141.021 180.215,139.502 180.467 C 138.307 180.664,137.748 177.299,138.415 173.930 C 138.602 172.988,138.616 171.190,138.447 169.935 C 138.113 167.462,138.646 165.275,139.440 165.858 C 139.675 166.030,140.295 166.112,140.818 166.040 M250.428 166.004 C 257.035 165.747,257.046 165.748,258.983 166.709 C 262.038 168.226,263.801 174.316,262.260 178.035 C 261.450 179.990,255.455 181.363,251.152 180.579 C 250.281 180.421,249.129 180.552,247.984 180.941 C 246.995 181.277,246.062 181.475,245.912 181.382 C 245.476 181.113,236.007 181.109,233.476 181.376 C 230.107 181.733,229.982 181.506,230.488 175.952 C 230.607 174.651,230.533 173.294,230.323 172.919 C 230.056 172.443,230.095 171.946,230.453 171.255 C 230.771 170.639,230.836 170.064,230.626 169.724 C 230.266 169.142,230.521 167.504,231.063 166.912 C 231.534 166.398,232.030 166.349,239.187 166.113 C 242.738 165.996,245.734 165.810,245.845 165.700 C 245.956 165.589,246.561 165.630,247.191 165.792 C 247.820 165.953,249.277 166.049,250.428 166.004 M288.056 239.693 C 284.931 239.831,285.062 239.402,285.062 249.511 C 285.062 258.518,286.084 257.659,275.357 257.659 C 270.410 257.659,266.830 257.817,266.388 258.053 C 265.676 258.434,265.652 259.038,265.652 276.237 C 265.652 291.722,265.575 294.136,265.059 294.873 C 264.480 295.699,264.291 295.718,256.781 295.721 L 249.096 295.723 248.430 296.893 C 247.632 298.295,247.462 308.513,248.196 310.962 C 248.749 312.809,248.862 312.833,256.778 312.840 C 266.541 312.847,266.145 312.452,266.318 322.360 C 266.468 330.945,266.469 330.948,268.030 331.458 C 270.008 332.103,297.690 332.125,300.190 331.482 L 302.188 330.969 302.188 324.209 C 302.188 318.366,302.608 313.880,303.216 313.225 C 303.314 313.121,307.133 312.950,311.704 312.845 C 316.275 312.740,320.157 312.512,320.331 312.338 C 320.505 312.164,320.691 308.568,320.746 304.346 C 320.888 293.293,319.913 294.196,331.693 294.196 L 339.772 294.196 340.010 293.007 C 340.380 291.154,340.277 240.789,339.902 240.196 C 339.592 239.706,297.094 239.294,288.056 239.693 M297.136 242.302 C 299.124 242.783,299.968 242.800,302.388 242.410 C 305.861 241.849,337.789 242.109,338.382 242.702 C 339.449 243.769,338.302 247.293,336.810 247.532 C 335.066 247.810,335.092 248.708,336.877 249.869 C 338.618 251.002,338.612 250.937,338.688 269.192 C 338.773 289.653,338.698 290.662,337.048 291.351 C 335.718 291.907,328.207 292.101,327.536 291.597 C 323.098 288.265,319.249 291.774,319.051 299.334 C 318.851 306.958,318.639 310.603,318.381 310.861 C 317.874 311.367,305.352 311.134,304.354 310.600 C 302.486 309.600,298.544 312.767,298.954 314.938 C 299.829 319.568,299.944 321.140,299.555 323.089 C 299.329 324.223,299.141 325.764,299.138 326.514 C 299.129 328.495,298.803 328.791,295.682 329.651 C 292.035 330.656,289.169 330.921,288.105 330.351 C 286.962 329.739,278.274 329.476,276.231 329.992 C 269.611 331.662,266.251 328.236,269.692 323.324 C 271.037 321.402,270.138 317.684,267.627 314.791 C 266.608 313.616,265.566 312.263,265.311 311.784 C 264.879 310.970,264.645 310.921,261.730 311.022 C 250.230 311.423,250.092 311.350,250.024 304.793 C 249.956 298.243,250.220 298.059,258.980 298.565 L 263.701 298.837 265.343 297.260 L 266.984 295.684 267.174 278.424 C 267.401 257.826,267.260 258.215,274.025 259.590 C 276.371 260.067,276.228 260.063,278.642 259.722 C 279.674 259.577,280.966 259.659,281.758 259.920 C 283.159 260.383,285.442 259.683,285.442 258.791 C 285.442 258.587,285.681 258.421,285.973 258.421 C 286.856 258.421,286.965 257.503,286.965 250.051 L 286.965 242.886 288.202 242.105 C 289.626 241.206,292.898 241.278,297.136 242.302 M99.062 251.380 C 99.065 252.426,99.139 252.809,99.226 252.231 C 99.314 251.652,99.312 250.796,99.221 250.328 C 99.131 249.860,99.059 250.333,99.062 251.380 M99.164 296.067 C 99.043 296.262,98.920 299.993,98.891 304.358 C 98.824 314.505,99.645 313.667,89.694 313.742 C 79.418 313.819,79.714 313.483,79.982 324.762 C 80.133 331.130,80.179 331.218,83.530 331.684 C 87.696 332.264,170.246 331.877,171.170 331.274 C 172.296 330.539,172.534 315.262,171.434 314.349 C 170.971 313.965,166.936 313.835,153.115 313.757 C 140.703 313.688,135.262 313.531,134.964 313.233 C 134.688 312.958,134.472 309.836,134.348 304.359 L 134.158 295.909 116.771 295.810 C 106.277 295.750,99.296 295.852,99.164 296.067 M130.637 298.232 C 131.169 298.393,131.304 298.866,131.304 300.570 C 131.304 301.744,131.509 303.275,131.761 303.971 C 132.123 304.972,132.113 305.773,131.713 307.804 C 130.533 313.788,132.441 316.257,137.776 315.650 C 144.224 314.916,167.064 315.751,166.478 316.699 C 166.365 316.882,166.411 317.035,166.581 317.039 C 166.750 317.043,167.572 317.642,168.407 318.371 C 169.242 319.099,170.055 319.696,170.215 319.696 C 170.374 319.696,170.504 320.637,170.504 321.789 C 170.504 322.940,170.352 323.882,170.165 323.882 C 169.979 323.882,169.756 324.481,169.671 325.214 C 169.585 325.947,169.652 326.546,169.820 326.546 C 170.970 326.546,169.766 327.768,167.935 328.458 C 164.911 329.599,165.762 329.569,129.210 329.823 C 103.024 330.005,96.064 330.157,94.401 330.582 C 88.479 332.096,83.366 329.773,82.822 325.320 C 81.660 315.804,82.676 314.142,89.042 315.140 C 94.420 315.983,96.215 315.794,99.935 313.994 C 103.524 312.257,103.655 311.947,101.756 309.676 C 100.651 308.355,100.642 307.952,101.667 305.986 C 102.928 303.566,103.058 301.223,101.994 300.090 C 100.205 298.187,100.684 298.118,115.985 298.072 C 123.678 298.049,130.271 298.121,130.637 298.232 M120.918 308.514 C 120.316 309.117,120.714 309.461,121.884 309.349 C 122.564 309.283,123.083 309.058,123.038 308.849 C 122.937 308.390,121.300 308.132,120.918 308.514 " stroke="none" fill="#f15e7e" fill-rule="evenodd"></path><path id="path4" d="M96.919 50.934 C 96.072 51.870,96.126 52.149,97.146 52.097 C 97.833 52.061,97.865 52.017,97.307 51.873 C 96.647 51.702,96.646 51.657,97.271 50.966 C 97.633 50.565,97.844 50.238,97.739 50.238 C 97.635 50.238,97.266 50.551,96.919 50.934 M102.288 50.507 C 102.761 50.598,103.446 50.595,103.810 50.499 C 104.174 50.404,103.787 50.330,102.950 50.334 C 102.112 50.338,101.815 50.416,102.288 50.507 M114.107 50.523 C 117.940 50.585,124.106 50.585,127.808 50.523 C 131.510 50.460,128.373 50.410,120.837 50.410 C 113.302 50.410,110.273 50.461,114.107 50.523 M174.625 50.523 C 186.625 50.579,206.149 50.579,218.012 50.523 C 229.875 50.467,220.057 50.422,196.194 50.422 C 172.331 50.422,162.625 50.467,174.625 50.523 M241.009 50.515 C 241.794 50.597,243.078 50.597,243.863 50.515 C 244.648 50.433,244.006 50.366,242.436 50.366 C 240.866 50.366,240.224 50.433,241.009 50.515 M135.096 52.877 C 135.333 53.321,135.490 56.950,135.490 62.011 L 135.490 70.409 136.346 70.365 C 136.991 70.332,137.038 70.278,136.537 70.147 C 135.926 69.987,135.871 69.228,135.871 61.057 C 135.871 53.294,135.795 52.141,135.286 52.141 C 134.827 52.141,134.786 52.298,135.096 52.877 M247.301 61.275 C 247.405 69.968,247.445 70.409,248.135 70.409 C 248.534 70.409,248.957 70.254,249.074 70.064 C 249.191 69.874,248.945 69.809,248.526 69.918 C 247.780 70.113,247.764 69.932,247.764 61.129 C 247.764 56.186,247.636 52.141,247.479 52.141 C 247.322 52.140,247.242 56.251,247.301 61.275 M249.009 65.081 C 249.009 66.023,249.084 66.408,249.174 65.937 C 249.265 65.466,249.265 64.696,249.174 64.225 C 249.084 63.754,249.009 64.139,249.009 65.081 M99.600 70.684 C 97.997 70.925,97.812 71.941,97.812 80.479 C 97.812 86.620,97.706 88.256,97.298 88.412 C 96.496 88.720,79.220 88.862,78.921 88.563 C 78.775 88.417,74.595 88.297,69.632 88.297 L 60.609 88.297 60.372 89.483 C 60.181 90.436,59.985 90.630,59.373 90.470 C 58.613 90.272,58.611 90.444,58.611 145.992 L 58.611 201.713 60.609 201.669 C 61.708 201.644,62.265 201.539,61.846 201.434 C 61.427 201.330,60.959 201.050,60.805 200.812 C 60.651 200.575,60.523 175.767,60.520 145.684 L 60.514 90.988 61.347 90.542 C 62.225 90.072,78.177 90.229,78.661 90.713 C 78.947 90.999,79.172 198.289,78.890 200.095 C 78.745 201.025,78.495 201.343,77.883 201.376 C 77.240 201.411,77.209 201.457,77.735 201.594 C 78.102 201.690,78.412 202.141,78.426 202.597 L 78.450 203.425 78.794 202.569 C 79.149 201.685,80.081 201.424,80.495 202.093 C 80.639 202.327,83.718 202.474,88.463 202.474 C 94.225 202.474,96.298 202.596,96.595 202.954 C 97.066 203.522,97.361 212.649,97.733 238.249 C 97.957 253.646,98.096 256.850,98.569 257.564 C 99.129 258.410,99.245 258.421,107.586 258.421 C 113.932 258.421,116.110 258.539,116.334 258.896 C 116.499 259.158,116.687 262.969,116.752 267.364 C 116.817 271.760,116.952 275.739,117.052 276.206 C 117.232 277.051,117.279 277.056,125.886 277.157 L 134.539 277.260 134.539 285.926 L 134.539 294.592 116.569 294.679 C 100.837 294.756,98.525 294.841,98.003 295.363 C 97.505 295.862,97.393 297.285,97.324 304.003 C 97.267 309.531,97.102 312.185,96.796 312.491 C 96.203 313.083,79.590 313.254,78.820 312.675 C 77.740 311.864,60.173 311.907,60.303 312.720 C 60.451 313.642,59.848 314.763,59.266 314.649 C 58.914 314.580,58.776 316.571,58.699 322.842 L 58.596 331.126 59.598 331.507 C 60.396 331.811,60.563 332.080,60.419 332.833 L 60.239 333.777 68.343 333.777 L 76.448 333.777 76.607 334.824 C 76.754 335.798,76.769 335.785,76.822 334.634 C 76.854 333.953,77.093 333.377,77.355 333.353 C 77.617 333.329,78.002 333.269,78.211 333.221 C 78.421 333.172,78.763 333.100,78.972 333.061 C 79.182 333.022,99.734 332.992,124.643 332.995 C 149.553 332.999,170.533 332.869,171.265 332.708 L 172.598 332.415 172.788 323.803 C 172.892 319.066,173.092 315.076,173.232 314.937 C 173.371 314.798,185.458 314.705,200.090 314.730 C 226.606 314.774,226.698 314.772,227.715 313.972 L 228.735 313.170 228.735 304.485 C 228.735 296.916,228.812 295.770,229.337 295.569 C 229.668 295.442,233.136 295.336,237.043 295.334 C 240.951 295.331,244.748 295.230,245.480 295.109 L 246.813 294.889 246.677 277.395 C 246.551 261.114,246.588 259.851,247.212 259.161 C 247.966 258.327,261.883 258.019,263.914 258.792 L 264.891 259.163 264.891 276.691 C 264.891 290.375,264.786 294.255,264.415 294.380 C 264.153 294.468,260.221 294.599,255.676 294.671 C 251.131 294.743,247.277 294.936,247.112 295.101 C 246.597 295.614,246.521 311.681,247.028 312.905 C 247.557 314.183,246.807 314.082,256.437 314.172 C 261.883 314.224,264.295 314.381,264.620 314.705 C 264.942 315.026,265.138 317.772,265.271 323.790 L 265.461 332.416 266.676 332.663 C 267.344 332.799,275.711 332.918,285.269 332.927 C 294.827 332.935,302.798 333.093,302.982 333.277 C 303.166 333.460,303.365 337.716,303.425 342.733 L 303.535 351.855 303.623 342.721 L 303.710 333.587 312.940 333.669 C 318.016 333.713,321.955 333.656,321.694 333.542 C 320.676 333.096,321.164 331.874,322.360 331.874 L 323.501 331.874 323.501 322.931 L 323.501 313.987 332.540 313.905 L 341.579 313.823 332.145 313.619 C 325.382 313.473,322.631 313.286,322.428 312.957 C 321.915 312.125,322.290 295.998,322.830 295.655 C 323.095 295.487,325.794 295.330,328.830 295.307 C 338.626 295.232,339.726 295.167,340.383 294.622 C 340.961 294.142,341.005 291.794,340.916 266.459 L 340.818 238.820 313.035 238.630 L 285.252 238.440 285.252 229.876 L 285.252 221.313 312.655 221.123 C 327.726 221.018,340.271 220.994,340.533 221.068 C 340.896 221.172,341.009 223.273,341.009 229.917 C 341.009 237.973,341.059 238.628,341.675 238.600 C 342.072 238.582,342.149 238.492,341.865 238.378 C 341.505 238.232,341.389 236.156,341.389 229.817 L 341.389 221.449 342.245 221.518 C 347.864 221.973,359.571 221.443,359.387 220.742 C 359.226 220.124,359.375 219.981,360.184 219.981 L 361.180 219.981 361.180 192.008 L 361.180 164.034 351.855 164.034 C 342.785 164.034,342.531 164.014,342.531 163.273 C 342.531 162.850,342.277 162.512,341.960 162.512 C 341.187 162.512,341.094 147.852,341.865 147.540 C 342.245 147.387,342.245 147.342,341.865 147.318 C 341.569 147.300,341.389 146.714,341.389 145.766 L 341.389 144.244 332.445 144.244 L 323.501 144.244 323.502 126.070 L 323.502 107.897 321.314 108.070 C 320.110 108.165,319.578 108.303,320.133 108.377 C 321.489 108.558,321.429 107.575,321.285 127.212 L 321.157 144.624 312.253 144.624 L 303.348 144.624 303.244 130.447 C 303.102 111.107,303.232 108.770,304.472 108.427 C 304.995 108.282,305.209 108.146,304.948 108.125 C 304.686 108.105,304.472 107.845,304.472 107.548 C 304.472 107.252,304.310 106.952,304.112 106.882 C 303.901 106.808,303.723 102.922,303.682 97.526 L 303.613 88.297 294.623 88.309 C 287.508 88.319,285.486 88.433,284.927 88.855 C 284.420 89.240,283.959 89.290,283.285 89.034 C 282.753 88.831,274.809 88.677,264.886 88.677 L 247.423 88.677 247.308 79.955 C 247.245 75.157,247.050 71.090,246.876 70.916 C 246.220 70.261,155.658 70.324,154.657 70.980 L 153.758 71.568 153.758 79.892 C 153.758 86.814,153.665 88.251,153.206 88.427 C 152.407 88.734,136.007 88.806,135.519 88.505 C 135.246 88.336,135.109 85.364,135.109 79.574 L 135.109 70.896 133.111 70.656 C 130.946 70.396,101.349 70.420,99.600 70.684 M131.589 71.401 L 134.348 71.640 134.348 79.978 L 134.348 88.316 133.372 88.687 C 132.835 88.891,128.922 89.058,124.677 89.058 C 116.187 89.058,115.528 89.238,115.660 91.519 C 115.690 92.050,115.703 92.697,115.688 92.959 C 115.673 93.221,115.567 96.466,115.452 100.170 L 115.244 106.906 116.216 107.877 L 117.187 108.849 125.785 108.849 L 134.383 108.849 135.317 107.915 C 136.248 106.983,136.251 106.954,136.263 99.066 C 136.279 88.867,135.241 89.889,145.729 89.745 C 156.237 89.601,155.187 90.697,155.096 79.964 L 155.025 71.621 156.199 71.386 C 157.706 71.084,242.029 71.118,244.434 71.421 L 246.242 71.649 246.242 80.340 C 246.242 88.543,246.283 89.053,246.978 89.425 C 247.454 89.680,253.825 89.819,265.042 89.819 C 281.785 89.819,282.384 89.844,282.765 90.555 C 283.001 90.996,283.159 94.502,283.159 99.281 L 283.159 107.271 284.162 108.060 C 285.102 108.799,285.650 108.849,292.940 108.849 C 297.456 108.849,301.018 109.010,301.436 109.234 C 302.125 109.603,302.156 110.360,302.177 127.184 C 302.192 139.457,302.326 144.902,302.621 145.257 C 302.951 145.655,304.980 145.766,311.940 145.766 C 316.834 145.766,320.850 145.809,320.866 145.861 C 320.882 145.913,320.969 149.810,321.060 154.520 L 321.224 163.083 322.194 163.939 C 323.130 164.766,323.424 164.795,330.729 164.795 C 334.890 164.795,338.732 164.962,339.267 165.165 L 340.239 165.534 340.196 192.006 L 340.153 218.478 339.197 219.229 C 338.267 219.961,337.552 219.981,311.698 219.981 C 290.083 219.981,285.077 220.075,284.735 220.487 C 284.463 220.815,284.279 224.050,284.213 229.670 L 284.110 238.346 275.130 238.393 C 263.738 238.452,264.930 237.333,264.802 248.090 L 264.700 256.708 255.674 256.898 C 247.674 257.067,246.571 257.166,245.969 257.768 C 245.342 258.395,245.276 259.831,245.100 276.417 L 244.910 294.386 236.472 294.577 C 231.832 294.681,227.893 294.909,227.719 295.083 C 227.545 295.257,227.317 299.282,227.212 304.027 L 227.022 312.655 200.285 312.752 L 173.549 312.850 173.549 304.690 C 173.549 300.201,173.382 296.090,173.178 295.553 L 172.807 294.577 155.131 294.577 C 145.409 294.577,137.184 294.473,136.853 294.346 C 136.329 294.144,136.251 293.016,136.251 285.639 C 136.251 275.077,137.361 276.170,126.394 275.928 L 117.793 275.737 117.602 266.946 C 117.360 255.755,118.469 256.898,107.851 256.898 C 101.329 256.898,99.318 256.787,99.264 256.422 C 99.225 256.161,99.166 247.298,99.132 236.727 C 99.031 205.390,98.946 203.110,97.840 201.934 L 96.918 200.951 89.347 200.951 C 85.055 200.951,81.470 200.788,81.069 200.573 C 80.067 200.037,79.879 92.238,80.877 90.714 C 81.463 89.821,81.476 89.819,89.638 89.819 C 100.266 89.819,99.284 90.804,99.284 80.143 C 99.284 75.631,99.375 71.792,99.486 71.613 C 99.722 71.231,127.522 71.048,131.589 71.401 M302.594 90.594 C 303.361 91.004,303.763 105.679,303.039 106.812 C 302.618 107.470,285.525 107.314,285.114 106.649 C 284.720 106.013,284.578 91.659,284.959 91.113 C 285.120 90.883,285.509 90.597,285.823 90.477 C 286.870 90.079,301.825 90.182,302.594 90.594 M134.641 98.827 L 134.744 106.884 132.219 107.154 C 128.035 107.602,117.604 107.173,117.164 106.534 C 116.749 105.933,116.960 91.693,117.393 90.991 C 117.577 90.694,120.190 90.597,126.097 90.668 L 134.539 90.771 134.641 98.827 M173.005 107.544 C 172.159 108.390,172.086 162.533,172.931 163.234 C 173.298 163.538,176.107 163.637,182.350 163.566 L 191.246 163.463 191.344 135.945 C 191.410 117.409,191.312 108.186,191.045 107.687 C 190.496 106.660,174.020 106.529,173.005 107.544 M210.847 107.318 C 210.130 107.771,209.767 161.586,210.472 162.904 C 211.029 163.944,227.346 164.084,227.742 163.052 C 228.340 161.495,227.987 108.155,227.375 107.544 C 226.684 106.852,211.903 106.651,210.847 107.318 M190.506 109.399 C 190.610 109.829,190.648 121.998,190.590 136.441 L 190.485 162.702 181.922 162.702 L 173.359 162.702 173.254 136.441 C 173.196 121.998,173.243 109.793,173.358 109.318 L 173.567 108.456 181.942 108.536 C 190.045 108.614,190.324 108.642,190.506 109.399 M226.641 135.680 L 226.641 162.702 219.057 162.702 L 211.472 162.702 211.175 161.590 C 210.780 160.113,210.948 109.557,211.350 108.936 C 211.589 108.566,213.421 108.476,219.152 108.555 L 226.641 108.658 226.641 135.680 M340.333 146.573 C 340.972 146.915,341.016 147.546,340.921 155.013 L 340.818 163.083 332.303 163.185 C 326.273 163.258,323.633 163.159,323.256 162.847 C 322.827 162.491,322.745 160.904,322.828 154.565 L 322.931 146.724 324.072 146.480 C 325.904 146.089,339.574 146.167,340.333 146.573 M359.184 191.585 C 359.255 211.199,359.165 218.706,358.852 219.083 C 358.163 219.913,341.560 219.834,341.240 218.998 C 340.936 218.207,340.939 165.801,341.242 165.010 C 341.449 164.472,342.501 164.413,350.281 164.503 L 359.087 164.605 359.184 191.585 M191.305 183.760 C 190.311 184.859,190.345 219.108,191.342 219.517 C 193.101 220.240,210.126 219.820,210.696 219.040 C 210.997 218.628,211.155 218.057,211.046 217.772 C 210.936 217.488,210.847 209.831,210.847 200.757 C 210.847 186.267,210.774 184.187,210.249 183.662 C 209.274 182.687,192.197 182.775,191.305 183.760 M208.857 184.905 C 209.807 185.508,209.707 218.445,208.754 218.678 C 208.335 218.780,204.342 218.816,199.881 218.757 L 191.771 218.649 191.792 201.926 C 191.809 188.951,191.921 185.136,192.291 184.901 C 192.918 184.503,208.229 184.507,208.857 184.905 M359.523 240.247 C 359.391 241.346,359.282 254.277,359.280 268.982 L 359.277 295.718 360.228 295.718 L 361.180 295.718 361.180 267.215 C 361.180 237.702,361.205 238.249,359.870 238.249 C 359.811 238.249,359.655 239.148,359.523 240.247 M283.223 239.585 C 283.872 239.834,283.754 255.610,283.097 256.402 C 282.425 257.212,266.957 257.112,266.644 256.296 C 266.328 255.474,266.350 239.962,266.667 239.645 C 266.961 239.351,282.465 239.295,283.223 239.585 M339.902 240.196 C 340.277 240.789,340.380 291.154,340.010 293.007 L 339.772 294.196 331.693 294.196 C 319.913 294.196,320.888 293.293,320.746 304.346 C 320.691 308.568,320.505 312.164,320.331 312.338 C 320.157 312.512,316.360 312.740,311.894 312.845 C 307.427 312.950,303.697 313.121,303.603 313.225 C 302.557 314.398,302.374 315.742,302.252 323.152 L 302.124 330.986 300.158 331.491 C 297.688 332.125,269.988 332.097,268.030 331.458 C 266.469 330.948,266.468 330.945,266.318 322.360 C 266.145 312.452,266.541 312.847,256.778 312.840 C 248.862 312.833,248.749 312.809,248.196 310.962 C 247.462 308.513,247.632 298.295,248.430 296.893 L 249.096 295.723 256.781 295.721 C 264.291 295.718,264.480 295.699,265.059 294.873 C 265.575 294.136,265.652 291.722,265.652 276.237 C 265.652 259.038,265.676 258.434,266.388 258.053 C 266.830 257.817,270.410 257.659,275.357 257.659 C 286.084 257.659,285.062 258.518,285.062 249.511 C 285.062 239.402,284.931 239.831,288.056 239.693 C 297.094 239.294,339.592 239.706,339.902 240.196 M172.544 296.765 C 172.841 298.567,172.853 309.925,172.559 311.703 L 172.339 313.035 154.580 312.939 C 144.813 312.886,136.435 312.753,135.963 312.645 L 135.103 312.448 135.134 304.192 C 135.151 299.652,135.248 295.802,135.350 295.637 C 135.452 295.472,143.809 295.338,153.921 295.338 L 172.308 295.338 172.544 296.765 M134.348 304.359 C 134.472 309.836,134.688 312.958,134.964 313.233 C 135.262 313.531,140.703 313.688,153.115 313.757 C 166.936 313.835,170.971 313.965,171.434 314.349 C 172.534 315.262,172.296 330.539,171.170 331.274 C 170.246 331.877,87.696 332.264,83.530 331.684 C 80.179 331.218,80.133 331.130,79.982 324.762 C 79.714 313.483,79.418 313.819,89.694 313.742 C 99.645 313.667,98.824 314.505,98.891 304.358 C 98.920 299.993,99.043 296.262,99.164 296.067 C 99.296 295.852,106.277 295.750,116.771 295.810 L 134.158 295.909 134.348 304.359 M321.010 314.650 C 321.348 315.530,321.278 330.825,320.935 331.168 C 320.747 331.355,316.752 331.463,312.057 331.406 L 303.520 331.304 303.520 322.931 L 303.520 314.558 305.233 314.363 C 308.923 313.942,320.822 314.160,321.010 314.650 M78.592 322.931 L 78.592 331.304 70.076 331.406 C 64.115 331.478,61.404 331.378,61.037 331.074 C 60.324 330.482,60.269 315.526,60.977 314.817 C 61.321 314.474,63.667 314.380,70.016 314.455 L 78.592 314.558 78.592 322.931 M191.437 341.579 C 191.437 347.127,191.565 351.665,191.722 351.665 C 191.879 351.666,191.959 347.598,191.900 342.626 L 191.792 333.587 218.807 333.587 C 246.724 333.587,247.062 333.569,246.494 332.090 C 246.290 331.556,243.391 331.494,218.851 331.494 L 191.437 331.494 191.437 341.579 " stroke="none" fill="#96717f" fill-rule="evenodd"></path></g></svg>